<?xml version="1.0" encoding="UTF-8"?>
<!DOCTYPE svg PUBLIC "-//W3C//DTD SVG 1.1//EN" "http://www.w3.org/Graphics/SVG/1.1/DTD/svg11.dtd">
<!-- Creator: CorelDRAW X7 -->
<svg xmlns="http://www.w3.org/2000/svg" xml:space="preserve" width="208.413mm" height="38.0751mm" version="1.1" style="shape-rendering:geometricPrecision; text-rendering:geometricPrecision; image-rendering:optimizeQuality; fill-rule:evenodd; clip-rule:evenodd"
viewBox="0 0 21310 3893"
 xmlns:xlink="http://www.w3.org/1999/xlink">
 <defs>
  <style type="text/css">
   <![CDATA[
    .fil0 {fill:#E35961}
    .fil1 {fill:white;fill-rule:nonzero}
   ]]>
  </style>
 </defs>
 <g id="Layer_x0020_1">
  <metadata id="CorelCorpID_0Corel-Layer"/>
  <path class="fil0" d="M90 2608l1916 -578 0 -507 234 0 0 -576c-728,2 -1567,-185 -2065,-372l0 -96c688,240 1654,338 2065,343l0 -822 257 0 0 823 366 0 0 -800 257 0 0 800 966 0 0 123 -966 0 0 600 -164 0 0 238 277 0 0 193 0 11 -19 0 -1504 861 -257 -183 553 -269 0 -157 -1574 672 -342 -304zm2407 -1662l0 577 -195 0 0 261 280 0 0 -238 281 0 0 -600 -366 0zm85 838l0 129 133 25 131 0 0 -154 -264 0zm-1772 -4l623 0 0 245 -623 0 0 -245zm-810 1599l993 -510 343 245 -978 651 -358 -386zm1663 265c558,-615 1109,-1230 2057,-1792l140 86c-471,426 -1196,1199 -1636,1955l-561 -249z"/>
  <path class="fil1" d="M5799 2093l0 -1514 -269 0 0 639 -706 0 0 -639 -271 0 0 1514 271 0 0 -611 706 0 0 611 269 0zm-1083 617l209 0c178,0 179,276 0,276l-209 0 0 -276zm209 -141c-116,-1 -232,0 -348,0l0 782 139 0 0 -230 209 0c362,0 361,-552 0,-552zm1157 772l-224 -267c141,-30 187,-138 187,-245 0,-136 -92,-258 -266,-260 -117,2 -234,0 -351,0l0 782 139 0 0 -261 134 0 215 261 166 0 0 -10zm-303 -634c88,0 127,62 127,125 0,63 -38,125 -127,125l-212 0 0 -250 212 0zm844 -152c-256,0 -380,206 -380,411 0,205 120,403 380,403 259,0 376,-202 379,-404 2,-204 -125,-410 -379,-410zm0 134c174,0 243,147 241,278 -2,129 -67,267 -241,267 -175,0 -240,-137 -243,-266 -3,-131 68,-279 243,-279zm1261 662l139 0 0 -779 -159 0 -231 335 -231 -335 -161 0 0 779 139 0 0 -567 236 340 27 0 241 -338 0 565zm754 -796c-256,0 -380,206 -380,411 0,205 120,403 380,403 259,0 376,-202 379,-404 2,-204 -125,-410 -379,-410zm0 134c174,0 243,147 241,278 -2,129 -67,267 -241,267 -175,0 -240,-137 -243,-266 -3,-131 68,-279 243,-279zm765 662l139 0 0 -648 234 0 0 -134c-214,0 -394,0 -608,0l0 134 235 0 0 648zm733 0l0 -782 -138 0 0 782 138 0zm637 -796c-256,0 -380,206 -380,411 0,205 120,403 380,403 260,0 377,-202 379,-404 2,-204 -125,-410 -379,-410zm0 134c174,0 244,147 242,278 -3,129 -68,267 -242,267 -174,0 -240,-137 -243,-266 -3,-131 69,-279 243,-279zm1103 365l-362 -485 -113 0 0 782 139 0 0 -527 389 527 0 0 86 0 0 -782 -139 0 0 485zm1395 297l0 -782 -138 0 0 782 138 0zm911 0l140 0 0 -779 -160 0 -231 335 -231 -335 -161 0 0 779 140 0 0 -567 235 340 28 0 240 -338 0 565zm1050 0l140 0 0 -779 -160 0 -231 335 -231 -335 -160 0 0 779 139 0 0 -567 235 340 28 0 240 -338 0 565zm754 -796c-255,0 -380,206 -380,411 0,205 120,403 380,403 260,0 377,-202 379,-404 2,-204 -125,-410 -379,-410zm0 134c174,0 244,147 242,278 -2,129 -68,267 -242,267 -174,0 -240,-137 -243,-266 -3,-131 69,-279 243,-279zm751 324l213 0c57,0 138,37 138,107 0,74 -81,94 -138,94l-213 0 0 -201zm0 -310l213 0c88,0 116,61 116,97 0,45 -29,84 -116,84l-213 0 0 -181zm213 -134c-117,0 -235,0 -351,0l0 782c117,0 234,0 351,0 153,0 276,-56 276,-230 0,-49 -31,-146 -118,-174 69,-32 96,-90 96,-151 0,-157 -109,-227 -254,-227zm650 782l0 -782 -138 0 0 782 138 0zm267 -782l0 782 519 0 0 -136 -380 0 0 -646 -139 0zm893 782l0 -782 -138 0 0 782 138 0zm818 -145l-415 0 0 -176 400 0 0 -137 -400 0 0 -181 415 0 0 -143 -553 0c0,261 0,522 0,782l553 0 0 -145zm-426 -874l117 153 114 0 0 -7 -79 -152 -152 0 0 6zm1320 1009l-224 -267c140,-30 187,-138 187,-245 0,-136 -92,-258 -266,-260 -117,2 -234,0 -352,0l0 782 140 0 0 -261 134 0 215 261 166 0 0 -10zm-303 -634c88,0 127,62 127,125 0,63 -38,125 -127,125l-212 0 0 -250 212 0zm1047 499l-415 0 0 -176 400 0 0 -137 -400 0 0 -181 415 0 0 -143 -553 0c0,261 0,522 0,782l553 0 0 -145zm-14022 -1113l295 0 -644 -1519 -295 0 -645 1519 294 0 123 -286 751 0 121 286zm-230 -552l-533 0 266 -648 267 648zm1728 -715c-109,-234 -341,-302 -565,-302 -264,3 -556,130 -556,442 0,341 271,423 565,460 190,21 332,80 332,223 0,165 -160,227 -330,227 -175,0 -341,-73 -405,-240l-225 123c106,278 332,373 625,373 321,0 604,-145 604,-483 0,-362 -279,-444 -579,-483 -172,-22 -320,-59 -320,-191 0,-113 96,-201 298,-201 155,0 291,82 340,169l216 -117zm1356 0c-109,-234 -341,-302 -565,-302 -264,3 -556,130 -556,442 0,341 271,423 565,460 191,21 332,80 332,223 0,165 -160,227 -330,227 -175,0 -341,-73 -404,-240l-226 123c107,278 332,373 626,373 320,0 603,-145 603,-483 0,-362 -279,-444 -579,-483 -172,-22 -320,-59 -320,-191 0,-113 97,-201 298,-201 156,0 291,82 340,169l216 -117zm1395 1267l295 0 -644 -1519 -295 0 -645 1519 294 0 123 -286 751 0 121 286zm-230 -552l-533 0 266 -648 267 648zm1592 -25l-703 -942 -220 0 0 1519 271 0 0 -1024 755 1024 0 0 168 0 0 -1519 -271 0 0 942zm1205 -669l406 0c345,0 347,538 0,538l-406 0 0 -538zm406 -273c-226,-2 -451,0 -677,0l0 1519 271 0 0 -446 406 0c704,0 702,-1073 0,-1073zm1984 1500l-435 -518c273,-59 363,-269 363,-478 0,-263 -178,-502 -517,-504 -228,2 -455,0 -683,0l0 1519 271 0 0 -507 260 0 419 507 322 0 0 -19zm-589 -1233c170,0 246,121 246,244 0,122 -74,243 -246,243l-412 0 0 -487 412 0zm1375 -295c-497,0 -739,401 -739,800 0,398 234,782 739,782 505,0 732,-392 736,-785 4,-396 -242,-797 -736,-797zm0 260c338,0 474,286 470,542 -4,249 -132,518 -470,518 -339,0 -466,-267 -472,-516 -6,-256 133,-544 472,-544zm2187 1287l271 0 0 -1514 -310 0 -449 651 -450 -651 -312 0 0 1514 271 0 0 -1101 458 660 53 0 468 -658 0 1099zm1200 -1547c-496,0 -738,401 -738,800 0,398 233,782 738,782 505,0 733,-392 737,-785 4,-396 -242,-797 -737,-797zm0 260c339,0 474,286 470,542 -4,249 -131,518 -470,518 -338,0 -466,-267 -472,-516 -6,-256 134,-544 472,-544z"/>
 </g>
</svg>
