<?xml version="1.0" encoding="utf-8"?>
<!-- Generator: Adobe Illustrator 19.0.0, SVG Export Plug-In . SVG Version: 6.00 Build 0)  -->
<svg version="1.1" id="Calque_1" xmlns="http://www.w3.org/2000/svg" xmlns:xlink="http://www.w3.org/1999/xlink" x="0px" y="0px"
	 viewBox="-2 367 590.8 107.9" style="enable-background:new -2 367 590.8 107.9;" xml:space="preserve">
<style type="text/css">
	.st0{fill:#E35961;}
	.st1{fill:#FFFFFF;}
</style>
<link  type="text/css" href="" xmlns="" id="dark-mode" rel="stylesheet"></link>
<path class="st0" d="M0.5,439.3l53.1-16v-14.1h6.5v-16c-20.2,0.1-43.4-5.1-57.2-10.3v-2.7c19.1,6.7,45.9,9.4,57.2,9.5V367h7.1v22.8
	h10.1v-22.2h7.1v22.2h26.8v3.4H84.5v16.6H80v6.6h7.7v5.4v0.3h-0.5L45.5,446l-7.1-5.1l15.3-7.5V429L10,447.7L0.5,439.3z M67.2,393.2
	v16h-5.4v7.2h7.8v-6.6h7.8v-16.6H67.2z M69.6,416.4v3.6l3.7,0.7h3.6v-4.3L69.6,416.4L69.6,416.4z M20.5,416.3h17.3v6.8H20.5V416.3z
	 M-2,460.6l27.5-14.1l9.5,6.8l-27.1,18L-2,460.6z M44.1,468c15.5-17,30.7-34.1,57-49.7l3.9,2.4c-13.1,11.8-33.2,33.2-45.4,54.2
	L44.1,468z"/>
<path class="st1" d="M158.8,425v-42h-7.5v17.7h-19.6V383h-7.5v42h7.5v-17h19.6v17H158.8z M128.7,442.1h5.8c4.9,0,5,7.7,0,7.7h-5.8
	V442.1z M134.5,438.2c-3.2,0-6.4,0-9.6,0v21.7h3.9v-6.4h5.8C144.6,453.5,144.5,438.2,134.5,438.2z M166.6,459.6l-6.2-7.4
	c3.9-0.8,5.2-3.8,5.2-6.8c0-3.8-2.6-7.2-7.4-7.2c-3.2,0.1-6.5,0-9.7,0v21.7h3.9v-7.2h3.7l6,7.2h4.6v-0.3H166.6z M158.2,442
	c2.4,0,3.5,1.7,3.5,3.5s-1.1,3.5-3.5,3.5h-5.9v-7H158.2z M181.6,437.8c-7.1,0-10.5,5.7-10.5,11.4c0,5.7,3.3,11.2,10.5,11.2
	s10.4-5.6,10.5-11.2C192.2,443.5,188.7,437.8,181.6,437.8z M181.6,441.5c4.8,0,6.7,4.1,6.7,7.7c-0.1,3.6-1.9,7.4-6.7,7.4
	c-4.9,0-6.7-3.8-6.7-7.4C174.8,445.6,176.8,441.5,181.6,441.5z M216.6,459.9h3.9v-21.6H216l-6.4,9.3l-6.4-9.3h-4.5v21.6h3.9v-15.7
	l6.5,9.4h0.7l6.7-9.4v15.7H216.6z M237.5,437.8c-7.1,0-10.5,5.7-10.5,11.4c0,5.7,3.3,11.2,10.5,11.2s10.4-5.6,10.5-11.2
	C248,443.5,244.5,437.8,237.5,437.8z M237.5,441.5c4.8,0,6.7,4.1,6.7,7.7c-0.1,3.6-1.9,7.4-6.7,7.4c-4.9,0-6.7-3.8-6.7-7.4
	C230.7,445.6,232.6,441.5,237.5,441.5z M258.7,459.9h3.9v-18h6.5v-3.7c-5.9,0-10.9,0-16.9,0v3.7h6.5V459.9z M279,459.9v-21.7h-3.8
	v21.7H279z M296.7,437.8c-7.1,0-10.5,5.7-10.5,11.4c0,5.7,3.3,11.2,10.5,11.2s10.5-5.6,10.5-11.2
	C307.2,443.5,303.7,437.8,296.7,437.8z M296.7,441.5c4.8,0,6.8,4.1,6.7,7.7c-0.1,3.6-1.9,7.4-6.7,7.4s-6.7-3.8-6.7-7.4
	C289.8,445.6,291.8,441.5,296.7,441.5z M327.2,451.6l-10-13.4h-3.1v21.7h3.9v-14.6l10.8,14.6l0,0h2.4v-21.7h-3.9L327.2,451.6
	L327.2,451.6z M365.9,459.9v-21.7h-3.8v21.7H365.9z M391.2,459.9h3.9v-21.6h-4.4l-6.4,9.3l-6.4-9.3h-4.5v21.6h3.9v-15.7l6.5,9.4h0.8
	l6.7-9.4v15.7H391.2z M420.3,459.9h3.9v-21.6h-4.4l-6.4,9.3l-6.4-9.3h-4.4v21.6h3.9v-15.7l6.5,9.4h0.8l6.7-9.4v15.7H420.3z
	 M441.2,437.8c-7.1,0-10.5,5.7-10.5,11.4c0,5.7,3.3,11.2,10.5,11.2s10.5-5.6,10.5-11.2C451.7,443.5,448.2,437.8,441.2,437.8z
	 M441.2,441.5c4.8,0,6.8,4.1,6.7,7.7c-0.1,3.6-1.9,7.4-6.7,7.4s-6.7-3.8-6.7-7.4C434.4,445.6,436.4,441.5,441.2,441.5z M462,450.5
	h5.9c1.6,0,3.8,1,3.8,3c0,2.1-2.2,2.6-3.8,2.6H462V450.5z M462,441.9h5.9c2.4,0,3.2,1.7,3.2,2.7c0,1.2-0.8,2.3-3.2,2.3H462V441.9z
	 M467.9,438.2c-3.2,0-6.5,0-9.7,0v21.7c3.2,0,6.5,0,9.7,0c4.2,0,7.7-1.6,7.7-6.4c0-1.4-0.9-4-3.3-4.8c1.9-0.9,2.7-2.5,2.7-4.2
	C474.9,440.1,471.9,438.2,467.9,438.2z M485.9,459.9v-21.7h-3.8v21.7H485.9z M493.3,438.2v21.7h14.4v-3.8h-10.5v-17.9L493.3,438.2
	L493.3,438.2z M518.1,459.9v-21.7h-3.8v21.7H518.1z M540.8,455.8h-11.5V451h11.1v-3.8h-11.1v-5h11.5v-4h-15.3c0,7.2,0,14.5,0,21.7
	h15.3V455.8z M529,431.6l3.2,4.2h3.2v-0.2l-2.2-4.2H529V431.6z M565.5,459.6l-6.2-7.4c3.9-0.8,5.2-3.8,5.2-6.8
	c0-3.8-2.6-7.2-7.4-7.2c-3.2,0.1-6.5,0-9.8,0v21.7h3.9v-7.2h3.7l6,7.2h4.6V459.6z M557.1,442c2.4,0,3.5,1.7,3.5,3.5
	s-1.1,3.5-3.5,3.5h-5.9v-7H557.1z M586.2,455.8h-11.5V451h11.1v-3.8h-11.1v-5h11.5v-4h-15.3c0,7.2,0,14.5,0,21.7h15.3V455.8z
	 M197.4,425h8.2l-17.9-42.1h-8.2L161.7,425h8.2l3.4-7.9h20.8L197.4,425z M191.1,409.7h-14.8l7.4-18L191.1,409.7z M239,389.9
	c-3-6.5-9.5-8.4-15.7-8.4c-7.3,0.1-15.4,3.6-15.4,12.3c0,9.5,7.5,11.7,15.7,12.8c5.3,0.6,9.2,2.2,9.2,6.2c0,4.6-4.4,6.3-9.1,6.3
	c-4.9,0-9.5-2-11.2-6.7l-6.2,3.4c2.9,7.7,9.2,10.3,17.3,10.3c8.9,0,16.7-4,16.7-13.4c0-10-7.7-12.3-16.1-13.4
	c-4.8-0.6-8.9-1.6-8.9-5.3c0-3.1,2.7-5.6,8.3-5.6c4.3,0,8.1,2.3,9.4,4.7L239,389.9z M276.6,389.9c-3-6.5-9.5-8.4-15.7-8.4
	c-7.3,0.1-15.4,3.6-15.4,12.3c0,9.5,7.5,11.7,15.7,12.8c5.3,0.6,9.2,2.2,9.2,6.2c0,4.6-4.4,6.3-9.1,6.3c-4.9,0-9.5-2-11.2-6.7
	l-6.3,3.4c3,7.7,9.2,10.3,17.4,10.3c8.9,0,16.7-4,16.7-13.4c0-10-7.7-12.3-16.1-13.4c-4.8-0.6-8.9-1.6-8.9-5.3
	c0-3.1,2.7-5.6,8.3-5.6c4.3,0,8.1,2.3,9.4,4.7L276.6,389.9z M315.2,425h8.2l-17.9-42.1h-8.2L279.5,425h8.2l3.4-7.9h20.8L315.2,425z
	 M308.9,409.7h-14.8l7.4-18L308.9,409.7z M353,409l-19.5-26.1h-6.1V425h7.5v-28.4l20.9,28.4l0,0h4.7v-42.1H353V409z M386.4,390.4
	h11.3c9.6,0,9.6,14.9,0,14.9h-11.3V390.4z M397.7,382.9c-6.3-0.1-12.5,0-18.8,0V425h7.5v-12.4h11.3
	C417.2,412.6,417.1,382.9,397.7,382.9z M452.7,424.5l-12.1-14.4c7.6-1.6,10.1-7.5,10.1-13.3c0-7.3-4.9-13.9-14.3-14
	c-6.3,0.1-12.6,0-18.9,0V425h7.5v-14.1h7.2l11.6,14.1h8.9L452.7,424.5L452.7,424.5z M436.3,390.3c4.7,0,6.8,3.4,6.8,6.8
	s-2.1,6.7-6.8,6.7h-11.4v-13.5H436.3z M474.4,382.1c-13.8,0-20.5,11.1-20.5,22.2c0,11,6.5,21.7,20.5,21.7s20.3-10.9,20.4-21.8
	C495,393.2,488.1,382.1,474.4,382.1z M474.4,389.3c9.4,0,13.1,7.9,13,15c-0.1,6.9-3.7,14.4-13,14.4c-9.4,0-12.9-7.4-13.1-14.3
	C461.2,397.3,465,389.3,474.4,389.3z M535.1,425h7.5v-42H534l-12.4,18l-12.5-18h-8.6v42h7.5v-30.5l12.7,18.3h1.5l13-18.2L535.1,425
	L535.1,425z M568.3,382.1c-13.8,0-20.5,11.1-20.5,22.2c0,11,6.5,21.7,20.5,21.7s20.3-10.9,20.4-21.8
	C588.9,393.2,582.1,382.1,568.3,382.1z M568.3,389.3c9.4,0,13.1,7.9,13,15c-0.1,6.9-3.6,14.4-13,14.4s-12.9-7.4-13.1-14.3
	C555.1,397.3,559,389.3,568.3,389.3z"/>
</svg>
